<svg width="56" height="56" viewBox="0 0 56 56" fill="none" xmlns="http://www.w3.org/2000/svg">
<path d="M50.4781 28.3462C50.257 28.2287 50.0141 28.1162 49.763 28.0062C50.0141 27.8963 50.257 27.7838 50.4781 27.6663C51.7299 27.0146 52.8285 26.1427 53.7107 25.1006C54.5929 24.0586 55.2413 22.867 55.6186 21.5946C55.9958 20.3222 56.0945 18.9939 55.9089 17.6864C55.7233 16.3789 55.2571 15.118 54.5372 13.9761C53.8172 12.8343 52.8577 11.8341 51.7138 11.0332C50.57 10.2323 49.2645 9.64645 47.8724 9.30943C46.4803 8.97242 45.0292 8.89088 43.6026 9.06949C42.1759 9.24811 40.802 9.68336 39.5598 10.3502C39.3387 10.4677 39.1094 10.6001 38.8828 10.7476C38.9047 10.4977 38.9183 10.2477 38.9183 9.99777C38.9183 7.3462 37.768 4.80322 35.7204 2.92828C33.6728 1.05333 30.8957 0 28 0C25.1043 0 22.3272 1.05333 20.2796 2.92828C18.232 4.80322 17.0817 7.3462 17.0817 9.99777C17.0817 10.2327 17.0817 10.4827 17.1172 10.7476C16.8906 10.6051 16.6613 10.4677 16.4402 10.3502C15.198 9.68336 13.8241 9.24811 12.3974 9.06949C10.9708 8.89088 9.51967 8.97242 8.12759 9.30943C6.73551 9.64645 5.42998 10.2323 4.28616 11.0332C3.14234 11.8341 2.18282 12.8343 1.46285 13.9761C0.742878 15.118 0.276674 16.3789 0.0910778 17.6864C-0.0945187 18.9939 0.00415824 20.3222 0.381428 21.5946C0.758697 22.867 1.40711 24.0586 2.28933 25.1006C3.17155 26.1427 4.27015 27.0146 5.52189 27.6663C5.74298 27.7838 5.98592 27.8963 6.23704 28.0062C5.98592 28.1162 5.74298 28.2287 5.52189 28.3462C4.27015 28.9979 3.17155 29.8698 2.28933 30.9119C1.40711 31.9539 0.758697 33.1455 0.381428 34.4179C0.00415824 35.6903 -0.0945187 37.0186 0.0910778 38.3261C0.276674 39.6336 0.742878 40.8945 1.46285 42.0364C2.18282 43.1782 3.14234 44.1784 4.28616 44.9793C5.42998 45.7802 6.73551 46.3661 8.12759 46.7031C9.51967 47.0401 10.9708 47.1216 12.3974 46.943C13.8241 46.7644 15.198 46.3291 16.4402 45.6623C16.6613 45.5448 16.8906 45.4124 17.1172 45.2649C17.0953 45.5148 17.0817 45.7648 17.0817 46.0022C17.0817 48.6538 18.232 51.1968 20.2796 53.0717C22.3272 54.9467 25.1043 56 28 56C30.8957 56 33.6728 54.9467 35.7204 53.0717C37.768 51.1968 38.9183 48.6538 38.9183 46.0022C38.9183 45.7673 38.9047 45.5173 38.8828 45.2649C39.1094 45.4074 39.3387 45.5448 39.5598 45.6623C41.2138 46.5395 43.0912 47.0017 45.0026 47.002C45.963 47.0009 46.9192 46.885 47.8468 46.6571C49.9327 46.1452 51.8059 45.0783 53.2297 43.5915C54.6534 42.1047 55.5636 40.2647 55.8453 38.3041C56.1269 36.3436 55.7673 34.3506 54.812 32.5772C53.8566 30.8038 52.3484 29.3297 50.4781 28.3412V28.3462ZM21.449 28.0062C21.449 26.8198 21.8332 25.66 22.553 24.6736C23.2729 23.6871 24.296 22.9182 25.493 22.4642C26.6901 22.0102 28.0073 21.8914 29.278 22.1229C30.5488 22.3543 31.7161 22.9256 32.6323 23.7646C33.5484 24.6035 34.1724 25.6723 34.4251 26.836C34.6779 27.9996 34.5482 29.2057 34.0523 30.3018C33.5565 31.3979 32.7168 32.3348 31.6395 32.994C30.5622 33.6531 29.2957 34.0049 28 34.0049C26.2626 34.0049 24.5963 33.3729 23.3677 32.2479C22.1392 31.123 21.449 29.5972 21.449 28.0062ZM41.7435 13.8119C42.4885 13.418 43.311 13.1624 44.1639 13.0596C45.0169 12.9568 45.8836 13.0088 46.7146 13.2127C47.5455 13.4166 48.3245 13.7683 49.007 14.2479C49.6896 14.7275 50.2622 15.3254 50.6924 16.0077C51.1225 16.6899 51.4017 17.443 51.514 18.2241C51.6263 19.0051 51.5695 19.7987 51.3468 20.5596C51.1241 21.3206 50.74 22.0339 50.2162 22.6589C49.6925 23.2838 49.0395 23.8082 48.2945 24.2021C46.583 25.1094 43.2147 25.7343 38.6972 25.9992C38.2207 23.883 37.0083 21.9652 35.2416 20.5329C37.7528 17.0787 40.032 14.7192 41.7435 13.8119ZM28 4.0116C29.7374 4.0116 31.4037 4.6436 32.6323 5.76857C33.8608 6.89354 34.551 8.41932 34.551 10.0103C34.551 11.8199 33.4592 14.8067 31.4502 18.5234C29.2112 17.8367 26.7888 17.8367 24.5498 18.5234C22.5408 14.8067 21.449 11.8199 21.449 10.0103C21.449 8.41932 22.1392 6.89354 23.3677 5.76857C24.5963 4.6436 26.2626 4.0116 28 4.0116ZM5.30625 16.0089C5.73627 15.3264 6.30893 14.7282 6.9915 14.2484C7.67408 13.7686 8.45319 13.4166 9.28435 13.2126C10.1155 13.0086 10.9824 12.9565 11.8356 13.0593C12.6887 13.1621 13.5114 13.4179 14.2566 13.8119C15.968 14.7192 18.2472 17.0787 20.7584 20.5329C18.9902 21.9672 17.7777 23.8878 17.3028 26.0067C12.7853 25.7418 9.417 25.1169 7.70555 24.2121C6.95912 23.8183 6.30483 23.2936 5.78013 22.668C5.25544 22.0424 4.87065 21.3282 4.64778 20.5662C4.42492 19.8042 4.36837 19.0095 4.48136 18.2275C4.59434 17.4455 4.87466 16.6916 5.30625 16.0089ZM14.2566 42.2006C12.7519 42.9961 10.9637 43.2116 9.28545 42.7998C7.6072 42.388 6.17633 41.3826 5.30761 40.0048C4.4389 38.627 4.2035 36.9896 4.6532 35.4529C5.1029 33.9161 6.20086 32.6059 7.70555 31.8104C9.417 30.9031 12.7853 30.2782 17.3028 30.0133C17.7793 32.1295 18.9917 34.0473 20.7584 35.4796C18.2472 38.9338 15.968 41.2933 14.2566 42.2006ZM28 52.0009C26.2626 52.0009 24.5963 51.3689 23.3677 50.2439C22.1392 49.119 21.449 47.5932 21.449 46.0022C21.449 44.1926 22.5408 41.2058 24.5498 37.4891C26.7888 38.1758 29.2112 38.1758 31.4502 37.4891C33.4592 41.2058 34.551 44.1926 34.551 46.0022C34.551 47.5932 33.8608 49.119 32.6323 50.2439C31.4037 51.3689 29.7374 52.0009 28 52.0009ZM50.6938 40.0036C50.2637 40.6861 49.6911 41.2843 49.0085 41.7641C48.3259 42.2439 47.5468 42.5959 46.7156 42.7999C45.8845 43.0039 45.0176 43.056 44.1644 42.9532C43.3113 42.8504 42.4886 42.5946 41.7435 42.2006C40.032 41.2933 37.7528 38.9338 35.2416 35.4796C37.0098 34.0453 38.2223 32.1247 38.6972 30.0058C43.2147 30.2707 46.583 30.8956 48.2945 31.8004C49.0409 32.1942 49.6952 32.7189 50.2199 33.3445C50.7446 33.9701 51.1294 34.6843 51.3522 35.4463C51.5751 36.2083 51.6316 37.003 51.5186 37.785C51.4057 38.567 51.1253 39.3209 50.6938 40.0036Z" fill="white"/>
</svg>
