<svg width="32" height="32" viewBox="0 0 32 32" fill="none" xmlns="http://www.w3.org/2000/svg">
<circle cx="16" cy="16" r="16" fill="#D60074"/>
<path d="M18.5508 12.1992H20.0625H20.3672C21.2422 12.1992 21.6797 12.5742 21.6797 13.3242C21.6797 13.793 21.5 14.1914 21.1406 14.5195C20.7891 14.8398 20.3516 15 19.8281 15H19.5234H17.4141L15.1406 20.6133C13.5625 24.4883 11.2266 26.4258 8.13281 26.4258C6.51562 26.4258 5.17578 25.9023 4.11328 24.8555C3.05078 23.8164 2.51953 22.5039 2.51953 20.918C2.51953 19.6836 2.83203 18.5039 3.45703 17.3789C4.08984 16.2539 4.97266 15.2852 6.10547 14.4727C7.06641 13.793 8.18359 13.2539 9.45703 12.8555C10.7383 12.457 12 12.2578 13.2422 12.2578L14.8945 12.2109L15.4102 12.1992L17.6602 6.53906L17.7891 6.21094C17.9688 5.72656 18.1953 5.40625 18.4688 5.25C18.75 5.08594 19.2188 5.00391 19.875 5.00391H25.8867C26.9727 5.00391 27.5156 5.38672 27.5156 6.15234C27.5156 6.60547 27.3359 6.99609 26.9766 7.32422C26.6172 7.64453 26.1797 7.80469 25.6641 7.80469H25.3477H20.3438L18.5508 12.1992ZM14.2734 15H13.6406C11.3281 15 9.48047 15.5273 8.09766 16.582C6.55078 17.7617 5.77734 19.0938 5.77734 20.5781C5.77734 21.375 6.01953 22.043 6.50391 22.582C6.99609 23.1211 7.60547 23.3906 8.33203 23.3906C10.0195 23.3906 11.4062 22.0508 12.4922 19.3711L14.2734 15Z" fill="white"/>
</svg>
